<mxfile host="Electron" agent="Mozilla/5.0 (X11; Linux x86_64) AppleWebKit/537.36 (KHTML, like Gecko) draw.io/26.0.4 Chrome/132.0.6834.196 Electron/34.2.0 Safari/537.36" version="26.0.4">
  <diagram name="Page-1" id="dS1RAlnjJ4SVEPr7FqiY">
    <mxGraphModel dx="975" dy="572" grid="1" gridSize="10" guides="1" tooltips="1" connect="1" arrows="1" fold="1" page="1" pageScale="1" pageWidth="850" pageHeight="1100" math="0" shadow="0">
      <root>
        <mxCell id="0" />
        <mxCell id="1" parent="0" />
        <mxCell id="bknMxyUMsL_qgQiqIZCV-13" style="edgeStyle=orthogonalEdgeStyle;curved=1;rounded=0;orthogonalLoop=1;jettySize=auto;html=1;exitX=0;exitY=1;exitDx=0;exitDy=0;entryX=0.5;entryY=0;entryDx=0;entryDy=0;" edge="1" parent="1" source="bknMxyUMsL_qgQiqIZCV-1" target="bknMxyUMsL_qgQiqIZCV-2">
          <mxGeometry relative="1" as="geometry" />
        </mxCell>
        <mxCell id="bknMxyUMsL_qgQiqIZCV-17" value="b" style="edgeLabel;html=1;align=center;verticalAlign=middle;resizable=0;points=[];" vertex="1" connectable="0" parent="bknMxyUMsL_qgQiqIZCV-13">
          <mxGeometry x="0.2272" y="21" relative="1" as="geometry">
            <mxPoint as="offset" />
          </mxGeometry>
        </mxCell>
        <mxCell id="bknMxyUMsL_qgQiqIZCV-22" style="edgeStyle=orthogonalEdgeStyle;curved=1;rounded=0;orthogonalLoop=1;jettySize=auto;html=1;exitX=0;exitY=0;exitDx=0;exitDy=0;startArrow=classic;startFill=1;endArrow=none;endFill=0;" edge="1" parent="1" source="bknMxyUMsL_qgQiqIZCV-1">
          <mxGeometry relative="1" as="geometry">
            <mxPoint x="340" y="200" as="targetPoint" />
          </mxGeometry>
        </mxCell>
        <mxCell id="bknMxyUMsL_qgQiqIZCV-1" value="0" style="ellipse;whiteSpace=wrap;html=1;aspect=fixed;" vertex="1" parent="1">
          <mxGeometry x="380" y="220" width="80" height="80" as="geometry" />
        </mxCell>
        <mxCell id="bknMxyUMsL_qgQiqIZCV-11" style="edgeStyle=orthogonalEdgeStyle;curved=1;rounded=0;orthogonalLoop=1;jettySize=auto;html=1;exitX=1;exitY=1;exitDx=0;exitDy=0;entryX=0;entryY=1;entryDx=0;entryDy=0;" edge="1" parent="1" source="bknMxyUMsL_qgQiqIZCV-2" target="bknMxyUMsL_qgQiqIZCV-3">
          <mxGeometry relative="1" as="geometry">
            <Array as="points">
              <mxPoint x="288" y="550" />
              <mxPoint x="552" y="550" />
            </Array>
          </mxGeometry>
        </mxCell>
        <mxCell id="bknMxyUMsL_qgQiqIZCV-21" value="b" style="edgeLabel;html=1;align=center;verticalAlign=middle;resizable=0;points=[];" vertex="1" connectable="0" parent="bknMxyUMsL_qgQiqIZCV-11">
          <mxGeometry y="1" relative="1" as="geometry">
            <mxPoint as="offset" />
          </mxGeometry>
        </mxCell>
        <mxCell id="bknMxyUMsL_qgQiqIZCV-2" value="2" style="ellipse;whiteSpace=wrap;html=1;aspect=fixed;" vertex="1" parent="1">
          <mxGeometry x="220" y="460" width="80" height="80" as="geometry" />
        </mxCell>
        <mxCell id="bknMxyUMsL_qgQiqIZCV-8" style="edgeStyle=orthogonalEdgeStyle;curved=1;rounded=0;orthogonalLoop=1;jettySize=auto;html=1;exitX=0;exitY=0;exitDx=0;exitDy=0;entryX=0.72;entryY=0.969;entryDx=0;entryDy=0;entryPerimeter=0;" edge="1" parent="1" source="bknMxyUMsL_qgQiqIZCV-3" target="bknMxyUMsL_qgQiqIZCV-1">
          <mxGeometry relative="1" as="geometry" />
        </mxCell>
        <mxCell id="bknMxyUMsL_qgQiqIZCV-18" value="b" style="edgeLabel;html=1;align=center;verticalAlign=middle;resizable=0;points=[];" vertex="1" connectable="0" parent="bknMxyUMsL_qgQiqIZCV-8">
          <mxGeometry x="0.3591" y="-10" relative="1" as="geometry">
            <mxPoint as="offset" />
          </mxGeometry>
        </mxCell>
        <mxCell id="bknMxyUMsL_qgQiqIZCV-10" style="edgeStyle=orthogonalEdgeStyle;curved=1;rounded=0;orthogonalLoop=1;jettySize=auto;html=1;exitX=0;exitY=0.5;exitDx=0;exitDy=0;entryX=1;entryY=0.5;entryDx=0;entryDy=0;" edge="1" parent="1" source="bknMxyUMsL_qgQiqIZCV-3" target="bknMxyUMsL_qgQiqIZCV-2">
          <mxGeometry relative="1" as="geometry" />
        </mxCell>
        <mxCell id="bknMxyUMsL_qgQiqIZCV-20" value="a" style="edgeLabel;html=1;align=center;verticalAlign=middle;resizable=0;points=[];" vertex="1" connectable="0" parent="bknMxyUMsL_qgQiqIZCV-10">
          <mxGeometry x="0.0397" y="1" relative="1" as="geometry">
            <mxPoint as="offset" />
          </mxGeometry>
        </mxCell>
        <mxCell id="bknMxyUMsL_qgQiqIZCV-3" value="1" style="ellipse;shape=doubleEllipse;whiteSpace=wrap;html=1;aspect=fixed;" vertex="1" parent="1">
          <mxGeometry x="540" y="460" width="80" height="80" as="geometry" />
        </mxCell>
        <mxCell id="bknMxyUMsL_qgQiqIZCV-6" style="edgeStyle=orthogonalEdgeStyle;curved=1;rounded=0;orthogonalLoop=1;jettySize=auto;html=1;exitX=1;exitY=1;exitDx=0;exitDy=0;entryX=0.256;entryY=0.106;entryDx=0;entryDy=0;entryPerimeter=0;" edge="1" parent="1" source="bknMxyUMsL_qgQiqIZCV-1" target="bknMxyUMsL_qgQiqIZCV-3">
          <mxGeometry relative="1" as="geometry" />
        </mxCell>
        <mxCell id="bknMxyUMsL_qgQiqIZCV-19" value="a" style="edgeLabel;html=1;align=center;verticalAlign=middle;resizable=0;points=[];" vertex="1" connectable="0" parent="bknMxyUMsL_qgQiqIZCV-6">
          <mxGeometry x="0.2216" y="-18" relative="1" as="geometry">
            <mxPoint as="offset" />
          </mxGeometry>
        </mxCell>
        <mxCell id="bknMxyUMsL_qgQiqIZCV-15" style="edgeStyle=orthogonalEdgeStyle;curved=1;rounded=0;orthogonalLoop=1;jettySize=auto;html=1;exitX=1;exitY=0;exitDx=0;exitDy=0;entryX=0.22;entryY=0.963;entryDx=0;entryDy=0;entryPerimeter=0;" edge="1" parent="1" source="bknMxyUMsL_qgQiqIZCV-2" target="bknMxyUMsL_qgQiqIZCV-1">
          <mxGeometry relative="1" as="geometry" />
        </mxCell>
        <mxCell id="bknMxyUMsL_qgQiqIZCV-16" value="a" style="edgeLabel;html=1;align=center;verticalAlign=middle;resizable=0;points=[];" vertex="1" connectable="0" parent="bknMxyUMsL_qgQiqIZCV-15">
          <mxGeometry x="0.3829" y="9" relative="1" as="geometry">
            <mxPoint as="offset" />
          </mxGeometry>
        </mxCell>
      </root>
    </mxGraphModel>
  </diagram>
</mxfile>
